# xmcd
#
# Track frame offsets: 
#        200
#        46747
#        77300
#        97775
#        121100
#        138350
#        162800
#        190925
#        215600
#        249800
#
# Disc length: 3701 seconds
#
# Revision: 1
# Processed by: cddbd v1.5.2PL0 Copyright (c) Steve Scherf et al.
# Submitted via: ExactAudioCopyFreeDBPlugin 1.0
#
DISCID=6d0e730a
DTITLE=Various Artist - Nabel - The First Decade I
DYEAR=1992
DGENRE=Jazz
TTITLE0=Klaus Ignatzek Group feat. Bobby Watson - Birthday 4th of Nove
TTITLE0=mber
TTITLE1=Engstfeld - Plümer- Weiss - Like Someone in Love
TTITLE2=John Thomas and Lifeforce - Mr. P
TTITLE3=Paul Shigihara - Charlie Mariano - N.C. Blues
TTITLE4=Jim Pepper - Christoph Spendel - Mr. R.B.
TTITLE5=Brecker - Engstfeld - Prümer - Weiss - Anika
TTITLE6=Klaus Ignatzek Group feat. Dave Liebman - A Taste Of Caramel
TTITLE7=Lee Konitz - Frank Wunsch Quartet - The Nearness Of You
TTITLE8=Klaus Ignatzek Group feat.  Joe Henderson - Three Wishes
TTITLE9=International Jazz Consensus - Longing
EXTD=YEAR: 1992
EXTT0=
EXTT1=
EXTT2=
EXTT3=
EXTT4=
EXTT5=
EXTT6=
EXTT7=
EXTT8=
EXTT9=
PLAYORDER=
